<svg width="130" height="21" viewBox="0 0 130 21" fill="none" xmlns="http://www.w3.org/2000/svg">
<path d="M13.0908 18.415C13.2566 18.2169 13.393 17.9964 13.5216 17.7724C15.034 15.1395 13.8725 12.2037 10.2622 9.81489L5.73659 6.84496C1.77669 4.27103 3.50208 0.424276 6.55685 0.424276C11.0346 0.424276 12.4975 3.75934 12.9408 5.92065C12.9632 6.03006 13.0586 6.10956 13.1703 6.10956V6.10956C13.2982 6.10956 13.4018 6.0059 13.4018 5.87804V3.10265C13.4018 2.02361 12.8151 1.03215 11.783 0.717158C10.6307 0.365458 8.87549 0 6.55685 0C3.04386 0 1.49615 1.51327 1.07827 2.01702C0.991738 2.12133 0.91549 2.23455 0.840918 2.34772C-1.23426 5.49686 0.789397 8.12734 4.09606 10.2392L8.59337 13.1242C11.9876 15.5567 11.2239 19.9975 7.57511 19.9975C2.77276 19.9975 1.28293 16.0925 0.793104 13.5119C0.772223 13.4019 0.676777 13.3222 0.564804 13.3222V13.3222C0.437423 13.3222 0.334159 13.4255 0.334159 13.5529V16.9489C0.334159 18.0852 0.881095 19.154 1.94812 19.5447C3.125 19.9756 4.97199 20.4218 7.57511 20.4218C11.0146 20.4218 12.5608 19.048 13.0908 18.415Z" fill="#2B2B2B"/>
<path d="M24.9969 20.4218C27.9951 20.4218 31.955 19.0075 31.9267 13.4354V5.40243C31.9267 4.06969 31.8722 0.774542 35.6427 0.680712C35.7599 0.677793 35.8583 0.583282 35.8583 0.465951V0.465951C35.8583 0.349205 35.7637 0.254565 35.6469 0.254565H28.1215C28.0048 0.254565 27.9102 0.349168 27.9102 0.465868V0.465868C27.9102 0.583217 28.0082 0.677624 28.1255 0.681332C31.5024 0.788112 31.5024 4.07243 31.5024 5.40243V13.4354C31.5024 17.0276 29.1548 18.9509 26.6374 18.9509C23.7523 18.9509 21.6593 16.9427 21.6593 13.5202V3.16792C21.6593 1.16984 22.7633 0.727505 23.908 0.682839C24.025 0.67827 24.1201 0.583863 24.1201 0.466703V0.466703C24.1201 0.349542 24.0251 0.254565 23.9079 0.254565H16.2993C16.1821 0.254565 16.0871 0.349542 16.0871 0.466703V0.466703C16.0871 0.583863 16.1823 0.677971 16.2993 0.685467C17.4301 0.757968 18.2085 1.43409 18.2085 3.13963V13.2939C18.2085 17.9044 21.2633 20.4218 24.9969 20.4218Z" fill="#2B2B2B"/>
<path d="M43.8157 0.678841C45.3431 0.678841 47.6907 0.84855 47.6907 5.03473C47.6907 9.27747 45.6825 9.87146 44.042 9.87146V9.87146C43.2609 9.87146 42.6277 9.23828 42.6277 8.45721V1.86681C42.6277 1.21071 43.1596 0.678841 43.8157 0.678841V0.678841ZM52.4992 15.1042C52.4992 10.2957 48.115 9.95631 46.2765 9.95631C46.8422 9.95631 51.1698 9.39061 51.1698 5.0913C51.1698 0.282851 47.6624 0.254565 43.7308 0.254565H37.593C37.5305 0.254565 37.4798 0.305219 37.4798 0.367705V0.367705C37.4798 0.430191 37.5306 0.480286 37.5929 0.485509C38.7485 0.582444 39.1204 2.17562 39.1204 3.87504V16.5467C39.1204 18.4014 38.7259 19.8089 37.6072 19.9071C37.5372 19.9133 37.4798 19.9696 37.4798 20.0399V20.0399C37.4798 20.1102 37.5368 20.1672 37.6071 20.1672H43.7308C48.6241 20.1672 52.4992 20.0258 52.4992 15.1042ZM48.8504 14.9628C48.8504 19.7995 46.3896 19.7429 43.8157 19.7429V19.7429C43.1596 19.7429 42.6277 19.211 42.6277 18.5549V11.71C42.6277 10.9289 43.2609 10.2957 44.042 10.2957V10.2957C46.0502 10.2957 48.8504 10.4372 48.8504 14.9628Z" fill="#2B2B2B"/>
<path d="M66.026 5.657C66.026 10.6352 63.7066 10.6352 60.7084 10.6352V10.6352C60.2242 10.6352 59.8316 10.2426 59.8316 9.75831V1.55568C59.8316 1.07142 60.2242 0.678841 60.7084 0.678841V0.678841C63.5935 0.678841 66.026 0.62227 66.026 5.657ZM73.069 19.9469C73.069 19.8318 72.9809 19.7367 72.8669 19.721C72.0328 19.6055 70.3923 19.0865 69.8728 17.1124C68.4585 11.4554 66.3654 10.7483 64.4986 10.8049C67.6948 10.522 69.9011 9.30576 69.9011 5.657C69.9011 0.933406 66.3372 0.254565 60.7084 0.254565H54.7262C54.609 0.254565 54.514 0.349542 54.514 0.466703V0.466703C54.514 0.583863 54.6093 0.67794 54.7262 0.685046C55.8324 0.752269 56.4091 1.37537 56.4091 3.02649V16.8013C56.4091 18.8226 55.8089 19.6435 54.7261 19.7343C54.6093 19.7441 54.514 19.8379 54.514 19.9551V19.9551C54.514 20.0722 54.609 20.1672 54.7262 20.1672H61.5994C61.7166 20.1672 61.8116 20.0722 61.8116 19.9551V19.9551C61.8116 19.8379 61.7163 19.7441 61.5996 19.7338C60.5303 19.6391 59.8316 18.8041 59.8316 16.971V12.3888C59.8316 11.6546 60.4268 11.0594 61.161 11.0594V11.0594C61.5287 11.0594 64.2723 11.0594 65.1209 14.0011C66.9311 20.1389 66.3372 20.1389 70.693 20.1672H72.8487C72.9704 20.1672 73.069 20.0686 73.069 19.9469V19.9469Z" fill="#2B2B2B"/>
<path d="M108.166 18.415C108.332 18.2169 108.468 17.9964 108.597 17.7724C110.109 15.1395 108.948 12.2037 105.337 9.81489L100.812 6.84496C96.8518 4.27103 98.5772 0.424276 101.632 0.424276C106.11 0.424276 107.573 3.75934 108.016 5.92065C108.038 6.03006 108.134 6.10956 108.245 6.10956V6.10956C108.373 6.10956 108.477 6.00591 108.477 5.87805V3.10265C108.477 2.02361 107.89 1.03215 106.858 0.717157C105.706 0.365458 103.951 0 101.632 0C98.1189 0 96.5712 1.51327 96.1534 2.01702C96.0668 2.12133 95.9906 2.23455 95.916 2.34772C93.8408 5.49686 95.8645 8.12734 99.1711 10.2392L103.668 13.1242C107.063 15.5567 106.299 19.9975 102.65 19.9975C97.8478 19.9975 96.358 16.0925 95.8682 13.5119C95.8473 13.4019 95.7519 13.3222 95.6399 13.3222V13.3222C95.5125 13.3222 95.4092 13.4255 95.4092 13.5529V16.9489C95.4092 18.0852 95.9562 19.154 97.0232 19.5447C98.2001 19.9756 100.047 20.4218 102.65 20.4218C106.09 20.4218 107.636 19.048 108.166 18.415Z" fill="#2B2B2B"/>
<path d="M118.881 13.9445C117.263 13.9445 116.14 12.3335 116.7 10.8157V10.8157C117.437 8.81512 120.254 8.77969 121.041 10.7611V10.7611C121.648 12.2875 120.523 13.9445 118.881 13.9445V13.9445ZM130 19.9472C130 19.832 129.911 19.737 129.796 19.7305C129.12 19.6925 128.508 19.6246 127.665 17.5962C127.657 17.5759 127.65 17.5582 127.642 17.5378C127.483 17.1354 125.551 12.237 120.623 0.42369C120.581 0.322948 120.482 0.254565 120.373 0.254565V0.254565C120.26 0.254565 120.159 0.324511 120.119 0.43009L115.348 13.1525C112.949 19.2302 112.161 19.679 111.343 19.7342C111.226 19.742 111.134 19.8354 111.134 19.9517V19.9517C111.134 20.0707 111.23 20.1672 111.349 20.1672H117.573C117.688 20.1672 117.781 20.0741 117.781 19.9593V19.9593C117.781 19.8412 117.679 19.7474 117.56 19.7477C115.482 19.7521 114.904 18.5652 114.879 17.2793C114.844 15.4927 116.658 14.3688 118.445 14.3688H120.039C121.511 14.3688 122.835 15.2649 123.381 16.6316V16.6316C123.707 17.3915 124.528 19.5578 122.944 19.7318C122.828 19.7446 122.731 19.8379 122.731 19.9551V19.9551C122.731 20.0722 122.826 20.1672 122.943 20.1672H129.78C129.902 20.1672 130 20.0687 130 19.9472V19.9472Z" fill="#2B2B2B"/>
<path d="M92.7268 12.0193C92.7268 16.3727 89.8729 19.9019 86.3525 19.9019C85.7678 19.9019 84.437 20.0784 82.9444 20.1433C81.418 20.2097 79.7224 20.1592 78.4824 19.6836C77.0956 19.1518 76.9907 17.0936 76.5701 16.5306C76.0664 15.8565 76.7603 14.434 76.5701 12.5893C76.3637 10.5886 75.9326 10.5102 75.9326 9.43629C75.9326 8.83481 76.3901 8.479 76.5701 7.85978C76.772 7.16491 76.7224 6.20468 77.2075 5.49501C78.3048 3.88953 80.061 2.31491 81.0321 1.55372C82.0178 0.781043 84.2407 1.55372 85.4941 1.55372C86.246 1.55372 86.2151 1.01992 86.769 0.765488C87.6574 0.357436 89.8734 2.86062 90.5936 3.91852C90.9136 4.38858 91.5449 5.26134 91.8685 6.2833C92.4887 8.2422 92.7268 10.7493 92.7268 12.0193Z" fill="#FBBFDC"/>
</svg>
