<svg width="15" height="15" viewBox="0 0 15 15" fill="none" xmlns="http://www.w3.org/2000/svg">
<path d="M7.5 9.375C8.53553 9.375 9.375 8.53553 9.375 7.5C9.375 6.46447 8.53553 5.625 7.5 5.625C6.46447 5.625 5.625 6.46447 5.625 7.5C5.625 8.53553 6.46447 9.375 7.5 9.375Z" stroke="white" stroke-linecap="round" stroke-linejoin="round"/>
<path d="M12.125 9.375C12.0418 9.56351 12.017 9.77262 12.0537 9.97537C12.0905 10.1781 12.1872 10.3652 12.3312 10.5125L12.3687 10.55C12.485 10.6661 12.5772 10.804 12.6401 10.9557C12.703 11.1074 12.7354 11.2701 12.7354 11.4344C12.7354 11.5986 12.703 11.7613 12.6401 11.913C12.5772 12.0648 12.485 12.2027 12.3687 12.3187C12.2527 12.435 12.1148 12.5272 11.963 12.5901C11.8113 12.653 11.6486 12.6854 11.4844 12.6854C11.3201 12.6854 11.1574 12.653 11.0057 12.5901C10.854 12.5272 10.7161 12.435 10.6 12.3187L10.5625 12.2812C10.4152 12.1372 10.2281 12.0405 10.0254 12.0037C9.82262 11.967 9.61351 11.9918 9.425 12.075C9.24014 12.1542 9.08249 12.2858 8.97144 12.4535C8.86039 12.6211 8.8008 12.8176 8.8 13.0187V13.125C8.8 13.4565 8.6683 13.7745 8.43388 14.0089C8.19946 14.2433 7.88152 14.375 7.55 14.375C7.21848 14.375 6.90054 14.2433 6.66612 14.0089C6.4317 13.7745 6.3 13.4565 6.3 13.125V13.0687C6.29516 12.8619 6.2282 12.6612 6.10782 12.4929C5.98744 12.3246 5.81921 12.1964 5.625 12.125C5.43649 12.0418 5.22738 12.017 5.02463 12.0537C4.82188 12.0905 4.6348 12.1872 4.4875 12.3312L4.45 12.3687C4.33391 12.485 4.19605 12.5772 4.0443 12.6401C3.89255 12.703 3.72989 12.7354 3.56562 12.7354C3.40136 12.7354 3.2387 12.703 3.08695 12.6401C2.9352 12.5772 2.79734 12.485 2.68125 12.3687C2.56503 12.2527 2.47283 12.1148 2.40993 11.963C2.34702 11.8113 2.31464 11.6486 2.31464 11.4844C2.31464 11.3201 2.34702 11.1574 2.40993 11.0057C2.47283 10.854 2.56503 10.7161 2.68125 10.6L2.71875 10.5625C2.86284 10.4152 2.95949 10.2281 2.99625 10.0254C3.03301 9.82262 3.0082 9.61351 2.925 9.425C2.84577 9.24014 2.71422 9.08249 2.54654 8.97144C2.37886 8.86039 2.18237 8.8008 1.98125 8.8H1.875C1.54348 8.8 1.22554 8.6683 0.991117 8.43388C0.756696 8.19946 0.625 7.88152 0.625 7.55C0.625 7.21848 0.756696 6.90054 0.991117 6.66612C1.22554 6.4317 1.54348 6.3 1.875 6.3H1.93125C2.13812 6.29516 2.33875 6.2282 2.50706 6.10782C2.67537 5.98744 2.80357 5.81921 2.875 5.625C2.9582 5.43649 2.98301 5.22738 2.94625 5.02463C2.90949 4.82188 2.81284 4.6348 2.66875 4.4875L2.63125 4.45C2.51503 4.33391 2.42283 4.19605 2.35993 4.0443C2.29702 3.89255 2.26464 3.72989 2.26464 3.56562C2.26464 3.40136 2.29702 3.2387 2.35993 3.08695C2.42283 2.9352 2.51503 2.79734 2.63125 2.68125C2.74734 2.56503 2.8852 2.47283 3.03695 2.40993C3.1887 2.34702 3.35136 2.31464 3.51562 2.31464C3.67989 2.31464 3.84255 2.34702 3.9943 2.40993C4.14605 2.47283 4.28391 2.56503 4.4 2.68125L4.4375 2.71875C4.5848 2.86284 4.77188 2.95949 4.97463 2.99625C5.17738 3.03301 5.38649 3.0082 5.575 2.925H5.625C5.80986 2.84577 5.96751 2.71422 6.07856 2.54654C6.1896 2.37886 6.2492 2.18237 6.25 1.98125V1.875C6.25 1.54348 6.3817 1.22554 6.61612 0.991117C6.85054 0.756696 7.16848 0.625 7.5 0.625C7.83152 0.625 8.14946 0.756696 8.38388 0.991117C8.6183 1.22554 8.75 1.54348 8.75 1.875V1.93125C8.7508 2.13237 8.81039 2.32886 8.92144 2.49654C9.03249 2.66422 9.19014 2.79577 9.375 2.875C9.56351 2.9582 9.77262 2.98301 9.97537 2.94625C10.1781 2.90949 10.3652 2.81284 10.5125 2.66875L10.55 2.63125C10.6661 2.51503 10.804 2.42283 10.9557 2.35993C11.1074 2.29702 11.2701 2.26464 11.4344 2.26464C11.5986 2.26464 11.7613 2.29702 11.913 2.35993C12.0648 2.42283 12.2027 2.51503 12.3187 2.63125C12.435 2.74734 12.5272 2.8852 12.5901 3.03695C12.653 3.1887 12.6854 3.35136 12.6854 3.51562C12.6854 3.67989 12.653 3.84255 12.5901 3.9943C12.5272 4.14605 12.435 4.28391 12.3187 4.4L12.2812 4.4375C12.1372 4.5848 12.0405 4.77188 12.0037 4.97463C11.967 5.17738 11.9918 5.38649 12.075 5.575V5.625C12.1542 5.80986 12.2858 5.96751 12.4535 6.07856C12.6211 6.1896 12.8176 6.2492 13.0187 6.25H13.125C13.4565 6.25 13.7745 6.3817 14.0089 6.61612C14.2433 6.85054 14.375 7.16848 14.375 7.5C14.375 7.83152 14.2433 8.14946 14.0089 8.38388C13.7745 8.6183 13.4565 8.75 13.125 8.75H13.0687C12.8676 8.7508 12.6711 8.81039 12.5035 8.92144C12.3358 9.03249 12.2042 9.19014 12.125 9.375V9.375Z" stroke="white" stroke-linecap="round" stroke-linejoin="round"/>
</svg>
