<svg width="14" height="14" viewBox="0 0 14 14" fill="none" xmlns="http://www.w3.org/2000/svg">
<g clip-path="url(#clip0)">
<path d="M11.2582 2.9328L10.858 12.5383C10.8453 12.8432 10.5819 13.0952 10.2758 13.0952H3.2917C2.98562 13.0952 2.72218 12.8426 2.7095 12.5383L2.30927 2.9328C2.30174 2.75215 2.14919 2.6118 1.96854 2.61933C1.78789 2.62686 1.64755 2.77941 1.65507 2.96006L2.0553 12.5656C2.0826 13.2207 2.63467 13.75 3.2917 13.75H10.2758C10.9325 13.75 11.4849 13.2216 11.5122 12.5656L11.9124 2.96006C11.92 2.77941 11.7796 2.62686 11.599 2.61933C11.4183 2.6118 11.2658 2.75215 11.2582 2.9328Z" fill="white"/>
<path d="M6.56543 4.25595V11.6766C6.56543 11.8574 6.712 12.004 6.89281 12.004C7.07362 12.004 7.22019 11.8574 7.22019 11.6766V4.25595C7.22019 4.07515 7.07362 3.92857 6.89281 3.92857C6.712 3.92857 6.56543 4.07515 6.56543 4.25595Z" fill="white"/>
<path d="M4.05581 4.26558L4.27406 11.6862C4.27938 11.8669 4.4302 12.0091 4.61093 12.0038C4.79166 11.9985 4.93386 11.8477 4.92854 11.667L4.71029 4.24633C4.70497 4.0656 4.55415 3.9234 4.37342 3.92872C4.19269 3.93403 4.05049 4.08485 4.05581 4.26558Z" fill="white"/>
<path d="M8.85707 4.24633L8.63882 11.667C8.6335 11.8477 8.7757 11.9985 8.95643 12.0038C9.13716 12.0091 9.28798 11.8669 9.29329 11.6862L9.51155 4.26558C9.51686 4.08485 9.37466 3.93403 9.19393 3.92872C9.0132 3.9234 8.86239 4.0656 8.85707 4.24633Z" fill="white"/>
<path d="M1.32738 1.85516H12.2401C12.4209 1.85516 12.5675 1.70858 12.5675 1.52777C12.5675 1.34697 12.4209 1.20039 12.2401 1.20039H1.32738C1.14657 1.20039 1 1.34697 1 1.52777C1 1.70858 1.14657 1.85516 1.32738 1.85516Z" fill="white"/>
<path d="M4.90529 1.54024L5.13888 0.956265C5.20107 0.800801 5.41681 0.654762 5.58347 0.654762H7.98427C8.15212 0.654762 8.36624 0.799723 8.42885 0.956265L8.66244 1.54024L9.27037 1.29706L9.03679 0.713093C8.87473 0.307963 8.41986 0 7.98427 0H5.58347C5.1491 0 4.69258 0.309023 4.53095 0.713093L4.29736 1.29706L4.90529 1.54024Z" fill="white"/>
</g>
<defs>
<clipPath id="clip0">
<rect width="13.5675" height="13.75" fill="white"/>
</clipPath>
</defs>
</svg>
